<svg xmlns="http://www.w3.org/2000/svg" width="32" height="32" viewBox="0 0 32 32">
    <g fill="none" fill-rule="nonzero">
        <path fill="#079CEE" d="M0 16C0 7.163 7.163 0 16 0s16 7.163 16 16-7.163 16-16 16S0 24.837 0 16z"/>
        <path fill="#FFF" d="M11.307 13.252v10.894H7.681V13.252h3.626zm.239-3.37c0 1.046-.788 1.883-2.052 1.883h-.023c-1.217 0-2.004-.837-2.004-1.883C7.467 8.814 8.277 8 9.518 8c1.24 0 2.004.814 2.028 1.882zM24.384 17.9v6.246h-3.626v-5.828c0-1.464-.525-2.463-1.838-2.463-1.001 0-1.598.673-1.86 1.324-.096.233-.12.558-.12.883v6.085h-3.626s.048-9.873 0-10.895h3.626v1.543c.482-.742 1.344-1.799 3.269-1.799 2.386 0 4.175 1.558 4.175 4.904z"/>
    </g>
</svg>
