<svg xmlns="http://www.w3.org/2000/svg" width="127" height="81" viewBox="0 0 127 81">
    <g fill="none" fill-rule="evenodd">
        <path stroke="#A5E0FF" stroke-linecap="round" stroke-linejoin="round" stroke-width="11" d="M16.834 13.763c11.558-.809 23.107-2.265 34.675-2.427 17.33-.244 69.24-1.414 51.984 1.21-31.68 4.818-63.636 1.974-95.382 5.39-8.645.93 17.298 1.845 25.96 2.08 22.857.62 45.742-1.216 68.579.484 1.54.115-2.311 3.766-3.814 4.34-4.873 1.86-9.91 2.457-14.907 2.808-22.054 1.548-44.365-2.494-66.199 2.885-13.677 3.37 27.61 2.902 41.437 3.215 14.078.32 28.155-1.894 42.23-1.319 1.21.05-2.013 2.372-3.179 2.915-3.672 1.711-7.453 2.723-11.214 3.79-4.692 1.333-9.376 3.12-14.133 3.406-17.484 1.051-35.038-1.573-52.484.6-8.737 1.087 17.475 2.345 26.235 2.668 20.844.77 41.714-.747 62.547.606 2.414.157-4.617 2.548-7.017 3.001-16.087 3.034-32.203 5.824-48.365 7.444-13.509 1.355-27.12-.673-40.592 1.475-11.033 1.76 22.171-.694 33.253-.304 24.627.865 49.292 1.06 73.857 4.07 4.006.49-7.856 2.978-11.859 3.524C97.997 67.049 87.51 67.739 77.026 68c-21.374.533-42.751.862-64.127.865" opacity=".396"/>
        <path fill="#454545" d="M76.547 22.152c.71 0 1.409-.324 1.855-.943l7.473-10.282a2.285 2.285 0 0 0-.503-3.198 2.282 2.282 0 0 0-3.199.507L74.7 18.52a2.29 2.29 0 0 0 .504 3.198c.408.294.878.435 1.343.435zm7.077 11.149a2.286 2.286 0 0 0 2.881 1.469l12.091-3.931a2.28 2.28 0 0 0 1.47-2.882 2.278 2.278 0 0 0-2.886-1.47l-12.09 3.928a2.286 2.286 0 0 0-1.466 2.886zm14.972 16.77l-12.09-3.927a2.282 2.282 0 0 0-2.882 1.47 2.287 2.287 0 0 0 1.465 2.884l12.091 3.928a2.29 2.29 0 0 0 2.885-1.47 2.286 2.286 0 0 0-1.469-2.885zm-20.194 9.633a2.29 2.29 0 1 0-3.702 2.691l7.473 10.282a2.277 2.277 0 0 0 1.855.943 2.285 2.285 0 0 0 1.847-3.633l-7.473-10.283zM61.59 63.62a2.292 2.292 0 0 0-2.29 2.29v12.714a2.292 2.292 0 0 0 2.29 2.29 2.292 2.292 0 0 0 2.29-2.29V65.91a2.292 2.292 0 0 0-2.29-2.29zm-16.813-3.916l-7.473 10.282a2.282 2.282 0 0 0 .508 3.199c.405.294.874.435 1.34.435.71 0 1.408-.324 1.855-.943l7.473-10.282a2.288 2.288 0 1 0-3.702-2.69zm-5.217-12.09a2.285 2.285 0 0 0-2.885-1.47L24.583 50.07a2.286 2.286 0 0 0-1.469 2.885 2.286 2.286 0 0 0 2.885 1.47l12.092-3.928a2.292 2.292 0 0 0 1.469-2.885zM24.583 30.838l12.092 3.931c.232.076.473.114.706.114a2.29 2.29 0 0 0 .71-4.47L25.999 26.49a2.28 2.28 0 0 0-2.885 1.47 2.28 2.28 0 0 0 1.47 2.88zM41.007 8.236a2.278 2.278 0 0 0-3.195-.507 2.282 2.282 0 0 0-.508 3.198l7.473 10.282a2.283 2.283 0 0 0 1.855.943c.466 0 .935-.141 1.344-.435a2.29 2.29 0 0 0 .504-3.198L41.007 8.236zM63.88 2.29v12.713a2.292 2.292 0 0 1-2.29 2.29 2.292 2.292 0 0 1-2.29-2.29V2.29A2.292 2.292 0 0 1 61.59 0a2.292 2.292 0 0 1 2.29 2.29z"/>
    </g>
</svg>
