<svg xmlns="http://www.w3.org/2000/svg" width="146" height="72" viewBox="0 0 146 72">
    <g fill="none" fill-rule="evenodd">
        <path stroke="#ABEDB8" stroke-linecap="round" stroke-linejoin="round" stroke-width="11" d="M17.963 62.97c13.498.846 26.984 2.369 40.493 2.538 20.236.255 80.858 1.479 60.705-1.266C82.167 59.204 44.85 62.18 7.777 58.607c-10.095-.973 20.2-1.93 30.315-2.176 26.692-.649 53.417 1.272 80.085-.507 1.799-.12-2.699-3.938-4.453-4.537-5.691-1.946-11.574-2.57-17.409-2.938-25.754-1.619-51.808 2.608-77.305-3.017-15.972-3.523 32.243-3.034 48.388-3.362 16.44-.334 32.88 1.98 49.316 1.38 1.414-.053-2.35-2.48-3.712-3.049-4.289-1.79-8.704-2.848-13.095-3.964-5.48-1.393-10.95-3.263-16.505-3.562-20.417-1.099-40.917 1.645-61.29-.626-10.203-1.138 20.408-2.453 30.637-2.791 24.341-.804 48.712.782 73.041-.633 2.82-.164-5.392-2.666-8.195-3.139-18.786-3.173-37.606-6.09-56.478-7.785-15.776-1.416-31.67.704-47.403-1.542-12.884-1.84 25.89.726 38.832.318 28.759-.905 57.562-1.11 86.249-4.256 4.677-.513-9.175-3.115-13.849-3.686-12.202-1.49-24.45-2.212-36.693-2.485-24.959-.558-49.923-.006-74.885-.01" opacity=".474"/>
        <path fill="#454545" d="M62.622 41.502a2.142 2.142 0 0 1 0-3.019l7.826-7.86c.195-.192.432-.349.69-.463a2.145 2.145 0 0 1 1.628 0c.258.114.492.27.69.463l7.922 7.96c.83.83.83 2.185 0 3.015-.415.42-.96.626-1.503.626a2.112 2.112 0 0 1-1.506-.626l-4.292-4.311v13.58c0 1.179-.95 2.133-2.127 2.133a2.13 2.13 0 0 1-2.126-2.132V37.287l-4.193 4.215a2.124 2.124 0 0 1-3.009 0zM98 57.206C98 59.846 95.797 62 93.088 62H51.912C49.203 62 47 59.846 47 57.206V23h51v34.206zM55.224 5.479A4.956 4.956 0 0 1 59.504 3H70v15H48l7.224-12.52zM75 3h10.496c1.757 0 3.397.948 4.28 2.48L97 18H75V3zm27 17.66v-.004a2.017 2.017 0 0 0-.259-.928c-.017-.035-.01-.072-.028-.103L92.612 4.44C90.968 1.701 87.918 0 84.648 0H59.352c-3.27 0-6.32 1.702-7.964 4.441l-9.101 15.184c-.018.03-.01.068-.028.103a1.975 1.975 0 0 0-.259.928v36.407C42 61.992 46.13 66 51.211 66H92.79c5.08 0 9.211-4.008 9.211-8.938V20.66z"/>
    </g>
</svg>
