<svg xmlns="http://www.w3.org/2000/svg" width="139" height="75" viewBox="0 0 139 75">
    <g fill="none" fill-rule="evenodd">
        <path stroke="#FEDF83" stroke-linecap="round" stroke-linejoin="round" stroke-width="11" d="M119.006 5.445c-13.415 1.65-26.917 2.742-40.245 4.948-19.966 3.305-79.843 12.828-59.6 11.58 37.161-2.289 73.482-11.21 110.507-14.716 10.083-.955-19.613 5.091-29.539 7.05-26.192 5.167-52.79 8.231-78.795 14.322-1.754.41 3.227 2.763 5.042 2.95 5.886.61 11.77.1 17.57-.612 25.596-3.143 50.643-11.136 76.567-10.948 16.238.118-31.314 8.09-47.167 11.162-16.142 3.129-32.666 4.084-48.766 7.432-1.385.288 2.674 1.627 4.097 1.857 4.482.723 8.984.825 13.47.98 5.598.19 11.255.775 16.77.056 20.265-2.644 40.056-8.455 60.449-10.129 10.212-.838-19.743 5.557-29.768 7.61-23.855 4.887-48.086 7.818-71.84 13.204-2.753.624 5.695 1.25 8.524 1.153 18.96-.659 37.916-1.533 56.748-3.42 15.74-1.576 31.087-6.076 46.905-6.964 12.955-.728-25.602 3.9-38.288 6.481-28.19 5.737-56.526 10.906-84.322 18.47-4.532 1.233 9.486.963 14.171.62 12.233-.896 24.4-2.43 36.495-4.332 24.66-3.876 49.166-8.664 73.749-12.996" opacity=".474"/>
        <path fill="#454545" d="M41.025 23.568A2.025 2.025 0 0 1 39 21.543V8.028C39 6.909 39.906 6 41.025 6h13.513a2.029 2.029 0 0 1 0 4.056H45.92l17.486 17.483c.793.79.793 2.075 0 2.866a2.022 2.022 0 0 1-2.866 0L43.053 12.92v8.622c0 1.118-.91 2.025-2.028 2.025zm42.406-15.54A2.03 2.03 0 0 1 85.459 6h13.516c1.119 0 2.025.91 2.025 2.028V21.54a2.028 2.028 0 0 1-4.056 0V12.92L79.459 30.405a2.027 2.027 0 0 1-2.866-2.865l17.485-17.487h-8.62a2.027 2.027 0 0 1-2.027-2.025zm15.544 42.404c1.119 0 2.025.907 2.025 2.025v13.515A2.027 2.027 0 0 1 98.975 68H85.462a2.029 2.029 0 0 1 0-4.056h8.619L76.595 46.461a2.022 2.022 0 0 1 0-2.866 2.022 2.022 0 0 1 2.866 0L96.947 61.08v-8.622c0-1.118.91-2.025 2.028-2.025zm-42.406 15.54A2.03 2.03 0 0 1 54.541 68H41.025A2.027 2.027 0 0 1 39 65.972V52.46a2.028 2.028 0 0 1 4.056 0v8.619l17.485-17.484a2.027 2.027 0 0 1 2.866 2.865L45.922 63.948h8.62c1.118 0 2.027.906 2.027 2.025z"/>
    </g>
</svg>
