<svg xmlns="http://www.w3.org/2000/svg" width="121" height="82" viewBox="0 0 121 82">
    <g fill="none" fill-rule="evenodd">
        <path stroke="#FDBEBE" stroke-linecap="round" stroke-linejoin="round" stroke-width="11" d="M18.99 5.869c11.572.71 23.235.702 34.716 2.132 17.198 2.141 68.787 8.067 51.289 8.578C72.873 17.516 41.67 9.912 9.7 9.285c-8.706-.171 16.841 4.455 25.382 5.922 22.538 3.869 45.487 5.016 67.837 10.082 1.507.342-2.876 3.857-4.453 4.284-5.117 1.387-10.198 1.349-15.2 1.043-22.082-1.351-43.545-8.942-66.005-6.012-14.07 1.836 26.889 7.063 40.531 9.335 13.892 2.314 28.177 1.817 42.025 4.414 1.192.224-2.363 2.352-3.602 2.792-3.904 1.388-7.806 1.985-11.696 2.647-4.854.825-9.771 2.157-14.527 1.812-17.477-1.267-34.452-6.622-52.067-6.64-8.821-.008 16.94 5.036 25.564 6.614 20.521 3.754 41.424 4.975 61.844 9.376 2.366.51-4.97 2.186-7.417 2.354-16.404 1.129-32.798 1.982-49.055 1.53-13.589-.376-26.751-4.52-40.427-4.011-11.2.417 22.063 2.315 32.976 4.29 24.253 4.388 48.647 8.037 72.504 14.795 3.89 1.102-8.244 2.212-12.293 2.26-10.57.128-21.064-.566-31.486-1.734-21.248-2.383-42.47-4.993-63.637-7.965" opacity=".396"/>
        <path fill="#454545" d="M86 57.459C86 64.372 80.376 70 73.457 70H48.54C41.624 70 36 64.372 36 57.459V52.99C36 39.21 47.213 28 60.998 28 74.787 28 86 39.212 86 52.99v4.469zM52.314 19h17.372C70.962 19 72 20.123 72 21.504 72 22.88 70.962 24 69.686 24H52.314C51.038 24 50 22.88 50 21.504 50 20.124 51.038 19 52.314 19zm5.173-10.547c2.011.632 4.128.632 6.139 0L71 6l-2.848 9H52.941L50 6.11l7.487 2.343zm15.938 18.29c1.594-1.162 2.642-3.03 2.642-5.15 0-2.485-1.441-4.625-3.518-5.681l2.67-8.763a3.968 3.968 0 0 0-1.02-4.005 3.977 3.977 0 0 0-4.024-.95l-7.4 2.41a5.719 5.719 0 0 1-3.55 0l-7.407-2.41a3.972 3.972 0 0 0-4.016.95A3.96 3.96 0 0 0 46.78 7.15l2.67 8.763c-2.077 1.056-3.518 3.196-3.518 5.682 0 2.119 1.048 3.987 2.639 5.149C38.788 31.416 32 41.384 32 52.939v4.463C32 66.555 39.436 74 48.575 74h24.846C82.564 74 90 66.555 90 57.402v-4.463c0-11.555-6.792-21.523-16.575-26.196z"/>
    </g>
</svg>
