<svg width="41" height="32" viewBox="0 0 41 32" fill="none" xmlns="http://www.w3.org/2000/svg">
<path d="M9.02256 32C6.21554 32 4.01002 30.9173 2.40601 28.7519C0.802005 26.5865 0 23.7795 0 20.3308C0 16.0802 1.08271 12.1504 3.24812 8.54136C5.41353 4.93234 8.70175 2.08521 13.1128 0L18.1654 4.69173C15.0376 5.73434 12.4311 7.37845 10.3459 9.62407C8.26065 11.8697 6.93734 14.3158 6.37594 16.9624L6.85714 17.203C7.57895 16.6416 8.70175 16.3609 10.2256 16.3609C11.9098 16.3609 13.4336 17.0426 14.797 18.406C16.1604 19.6892 16.8421 21.5338 16.8421 23.9398C16.8421 26.1053 16.0802 27.99 14.5564 29.594C13.0326 31.198 11.188 32 9.02256 32ZM31.6391 32C28.8321 32 26.6266 30.9173 25.0226 28.7519C23.4185 26.5865 22.6165 23.7795 22.6165 20.3308C22.6165 16.0802 23.6992 12.1504 25.8647 8.54136C28.0301 4.93234 31.3183 2.08521 35.7293 0L40.782 4.69173C37.6541 5.73434 35.0476 7.37845 32.9624 9.62407C30.8772 11.8697 29.5539 14.3158 28.9925 16.9624L29.4737 17.203C30.1955 16.6416 31.3183 16.3609 32.8421 16.3609C34.5263 16.3609 36.0501 17.0426 37.4135 18.406C38.7769 19.6892 39.4586 21.5338 39.4586 23.9398C39.4586 26.1053 38.6967 27.99 37.1729 29.594C35.6491 31.198 33.8045 32 31.6391 32Z" fill="#079CEE"/>
</svg>
