<svg xmlns="http://www.w3.org/2000/svg" width="21" height="16" viewBox="0 0 21 16">
    <path fill="#000" fill-rule="evenodd" d="M21 1.907a8.856 8.856 0 0 1-2.475.631c.894-.505 1.568-1.286 1.9-2.24a8.831 8.831 0 0 1-2.733.977A4.467 4.467 0 0 0 14.543 0c-2.377 0-4.313 1.815-4.313 4.043 0 .322.037.62.11.919C6.764 4.79 3.579 3.182 1.459.735A3.857 3.857 0 0 0 .87 2.768c0 1.401.76 2.642 1.923 3.366a4.544 4.544 0 0 1-1.948-.506v.046c0 1.953 1.483 3.595 3.455 3.963a4.68 4.68 0 0 1-1.139.138c-.282 0-.551-.023-.809-.07.552 1.609 2.144 2.78 4.031 2.803a9.04 9.04 0 0 1-5.354 1.735A10.3 10.3 0 0 1 0 14.185 12.797 12.797 0 0 0 6.604 16c7.927 0 12.264-6.156 12.264-11.497 0-.173 0-.345-.012-.529A7.914 7.914 0 0 0 21 1.907z" opacity=".6"/>
</svg>
