<svg xmlns="http://www.w3.org/2000/svg" width="18" height="17" viewBox="0 0 18 17">
    <path fill="#000" fill-rule="nonzero" d="M18 10.423V17h-3.858v-6.137c0-1.541-.558-2.594-1.954-2.594-1.066 0-1.7.71-1.98 1.395-.102.246-.128.587-.128.93V17H6.22s.053-10.394 0-11.47h3.86v1.625l-.026.037h.026v-.037c.512-.78 1.428-1.895 3.477-1.895C16.097 5.26 18 6.9 18 10.423zM2.184 0C.864 0 0 .856 0 1.981c0 1.101.839 1.983 2.133 1.983h.025c1.346 0 2.183-.881 2.183-1.983C4.316.856 3.504 0 2.184 0zM.229 17h3.858V5.53H.229V17z" opacity=".6"/>
</svg>
