<svg xmlns="http://www.w3.org/2000/svg" width="32" height="32" viewBox="0 0 32 32">
    <path fill="#079CEE" fill-rule="evenodd" d="M28.16 18.106c0 .41-.334.744-.743.744H5.09a.746.746 0 0 1-.744-.744V4.711c0-.41.335-.744.744-.744h22.326c.409 0 .744.334.744.744v13.395zM27.418.246H5.09A4.469 4.469 0 0 0 .626 4.71v15.628a4.469 4.469 0 0 0 4.465 4.465h9.302v2.976h-3.72a1.861 1.861 0 0 0 0 3.721h11.162a1.861 1.861 0 0 0 0-3.72h-3.72v-2.977h9.302a4.469 4.469 0 0 0 4.465-4.465V4.71A4.469 4.469 0 0 0 27.417.246z"/>
</svg>
