<svg xmlns="http://www.w3.org/2000/svg" width="32" height="32" viewBox="0 0 32 32">
    <path fill="#079CEE" fill-rule="evenodd" d="M24.21 22.629a10.437 10.437 0 0 1-7.987 3.709 10.437 10.437 0 0 1-7.987-3.71c-.516-.607-.575-1.482-.19-2.18 1.509-2.704 4.604-4.559 8.177-4.559 3.572 0 6.667 1.855 8.176 4.558.385.7.327 1.574-.19 2.182zM16.223 5.44a4.245 4.245 0 1 1 0 8.49 4.245 4.245 0 0 1 0-8.49zm0-5.224C7.57.216.549 7.236.549 15.889s7.02 15.673 15.674 15.673c8.653 0 15.673-7.02 15.673-15.673S24.876.216 16.223.216z"/>
</svg>
