<svg xmlns="http://www.w3.org/2000/svg" width="32" height="32" viewBox="0 0 32 32">
    <path fill="#079CEE" fill-rule="evenodd" d="M25.928 18.851H6.58c-.818 0-1.488-.67-1.488-1.488 0-.819.67-1.489 1.488-1.489h19.35c.818 0 1.488.67 1.488 1.489 0 .818-.67 1.488-1.489 1.488zM11.417 4.711c0-.208.163-.372.372-.372h8.93c.208 0 .372.164.372.372v2.233h-9.674V4.711zM28.16 6.944h-3.35V4.711A4.1 4.1 0 0 0 20.72.618h-8.93a4.1 4.1 0 0 0-4.093 4.093v2.233h-3.35a3.722 3.722 0 0 0-3.72 3.72v17.117a3.722 3.722 0 0 0 3.72 3.721h23.815a3.722 3.722 0 0 0 3.72-3.72V10.664a3.722 3.722 0 0 0-3.72-3.721z"/>
</svg>
