<svg xmlns="http://www.w3.org/2000/svg" width="32" height="32" viewBox="0 0 32 32">
    <path fill="#079CEE" fill-rule="evenodd" d="M17.855 23.615v.842c0 .68-.549 1.228-1.228 1.228h-.81c-.679 0-1.228-.549-1.228-1.228v-.83a6.092 6.092 0 0 1-3.317-1.253 1.23 1.23 0 0 1-.111-1.835l.581-.575c.431-.437 1.104-.464 1.607-.11a2.81 2.81 0 0 0 1.645.528h2.443c.483 0 .94-.268 1.13-.699.3-.679-.085-1.417-.732-1.606l-4.166-1.248a4.425 4.425 0 0 1-3.161-4.127c-.066-2.338 1.796-4.284 4.081-4.539v-.842c0-.68.549-1.228 1.228-1.228h.81c.68 0 1.228.549 1.228 1.228v.83c1.24.084 2.39.535 3.324 1.253.574.45.62 1.313.104 1.829l-.581.58c-.431.438-1.104.465-1.6.112a2.846 2.846 0 0 0-1.652-.53H15c-.613 0-1.168.452-1.22 1.065a1.174 1.174 0 0 0 .829 1.241l4.167 1.248a4.425 4.425 0 0 1 3.16 4.127c.066 2.338-1.796 4.284-4.081 4.539zM16.222.215C7.569.216.549 7.236.549 15.89c0 8.653 7.02 15.673 15.673 15.673s15.674-7.02 15.674-15.673S24.876.216 16.222.216z"/>
</svg>
