<svg xmlns="http://www.w3.org/2000/svg" width="32" height="32" viewBox="0 0 32 32">
    <path fill="#079CEE" fill-rule="evenodd" d="M28.16 8.432c0 .818-.669 1.488-1.488 1.488-.818 0-1.488-.67-1.488-1.488V5.455c0-.819.67-1.488 1.488-1.488.819 0 1.489.67 1.489 1.488v2.977zm0 8.93c0 .818-.669 1.488-1.488 1.488-.818 0-1.488-.67-1.488-1.488v-2.977c0-.818.67-1.488 1.488-1.488.819 0 1.489.67 1.489 1.488v2.977zm0 8.93c0 .819-.669 1.488-1.488 1.488-.818 0-1.488-.67-1.488-1.488v-2.977c0-.818.67-1.488 1.488-1.488.819 0 1.489.67 1.489 1.488v2.977zM7.325 8.432c0 .818-.67 1.488-1.489 1.488-.818 0-1.488-.67-1.488-1.488V5.455c0-.819.67-1.488 1.488-1.488.819 0 1.489.67 1.489 1.488v2.977zm0 8.93c0 .818-.67 1.488-1.489 1.488-.818 0-1.488-.67-1.488-1.488v-2.977c0-.818.67-1.488 1.488-1.488.819 0 1.489.67 1.489 1.488v2.977zm0 8.93c0 .819-.67 1.488-1.489 1.488-.818 0-1.488-.67-1.488-1.488v-2.977c0-.818.67-1.488 1.488-1.488.819 0 1.489.67 1.489 1.488v2.977zM4.347.246a3.722 3.722 0 0 0-3.721 3.72V27.78a3.722 3.722 0 0 0 3.72 3.721h23.815a3.722 3.722 0 0 0 3.72-3.72V3.966a3.722 3.722 0 0 0-3.72-3.721H4.347z"/>
</svg>
