<svg xmlns="http://www.w3.org/2000/svg" width="33" height="33" viewBox="0 0 33 33">
    <path fill="#079CEE" fill-rule="evenodd" d="M23.482 14.34H9.768a1.528 1.528 0 0 1-1.524-1.523c0-.838.686-1.524 1.524-1.524h13.714c.838 0 1.524.686 1.524 1.524s-.686 1.524-1.524 1.524zm-3.81 6.858H9.769a1.528 1.528 0 0 1-1.524-1.524c0-.838.686-1.524 1.524-1.524h9.905c.838 0 1.524.686 1.524 1.524s-.686 1.524-1.524 1.524zM16.626.246c-8.838 0-16 7.161-16 16 0 3.116.907 6.011 2.446 8.472L.755 30.12c-.541 1.265.731 2.537 1.996 1.996L8.153 29.8a15.918 15.918 0 0 0 8.472 2.446c8.838 0 16-7.162 16-16 0-8.839-7.162-16-16-16z"/>
</svg>
