<svg xmlns="http://www.w3.org/2000/svg" width="24" height="32" viewBox="0 0 24 32">
    <path fill="#079CEE" fill-rule="evenodd" d="M20.312 11.287h-4.26c-1.784 0-3.232-1.46-3.232-3.258V3.736c0-.58.698-.867 1.105-.456l6.84 6.893c.407.41.122 1.114-.453 1.114zm-4.26 13.682H8.294a1.302 1.302 0 0 1-1.293-1.303c0-.717.582-1.303 1.293-1.303h7.758c.711 0 1.293.586 1.293 1.303 0 .716-.582 1.303-1.293 1.303zm-7.758-8.47h4.526c.71 0 1.292.586 1.292 1.303s-.581 1.303-1.292 1.303H8.294a1.302 1.302 0 0 1-1.293-1.303c0-.717.582-1.303 1.293-1.303zm14.572-8.118l-7.163-7.219a3.216 3.216 0 0 0-2.282-.95H3.769C1.985.211.537 1.67.537 3.468v24.757c0 1.799 1.448 3.258 3.232 3.258h16.808c1.784 0 3.232-1.46 3.232-3.258V10.681c0-.866-.342-1.694-.943-2.3z"/>
</svg>
