<svg xmlns="http://www.w3.org/2000/svg" width="32" height="32" viewBox="0 0 32 32">
    <g fill="#079CEE" fill-rule="evenodd">
        <path d="M9.556 21.828c0-1.801-1.069-3.35-2.605-4.055V2.138a1.86 1.86 0 1 0-3.72 0v15.635a4.462 4.462 0 0 0-2.605 4.055 4.46 4.46 0 0 0 2.605 4.055v3.79a1.86 1.86 0 1 0 3.72 0v-3.79a4.46 4.46 0 0 0 2.605-4.055M31.882 18.851c0-1.801-1.069-3.349-2.605-4.055V2.138a1.86 1.86 0 1 0-3.72 0v12.658a4.462 4.462 0 0 0-2.606 4.055 4.46 4.46 0 0 0 2.605 4.055v6.767a1.86 1.86 0 1 0 3.721 0v-6.767a4.46 4.46 0 0 0 2.605-4.055M20.719 9.92c0-1.8-1.069-3.348-2.605-4.054V2.138a1.86 1.86 0 1 0-3.72 0v3.728a4.462 4.462 0 0 0-2.605 4.055 4.46 4.46 0 0 0 2.604 4.055v15.697a1.86 1.86 0 1 0 3.721 0V13.976A4.46 4.46 0 0 0 20.72 9.92"/>
    </g>
</svg>
