<svg xmlns="http://www.w3.org/2000/svg" width="32" height="32" viewBox="0 0 32 32">
    <g fill="#079CEE" fill-rule="evenodd">
        <path d="M17.742 5.827a5.582 5.582 0 0 1-11.163 0 5.582 5.582 0 0 1 11.163 0M12.103 25.206c.227.937-.521 1.83-1.486 1.83H3.372c-1.518 0-2.746-1.25-2.746-2.79 0-5.857 5.165-10.605 11.535-10.605.2 0 .4.007.598.015a1.496 1.496 0 0 1 1.14 2.389 11.067 11.067 0 0 0-2.11 6.526c0 .908.109 1.786.314 2.635zM28.153 20.993l-5.269 5.262c-.29.29-.67.439-1.049.439-.38 0-.759-.149-1.05-.44l-3.035-3.028a1.491 1.491 0 0 1 0-2.106c.58-.58 1.525-.58 2.106 0l1.98 1.98 4.211-4.213c.58-.58 1.526-.58 2.106 0 .58.58.58 1.526 0 2.106zm-5.202-7.352a8.928 8.928 0 0 0-8.93 8.93 8.928 8.928 0 0 0 8.93 8.93 8.928 8.928 0 0 0 8.93-8.93 8.928 8.928 0 0 0-8.93-8.93z"/>
    </g>
</svg>
