<svg xmlns="http://www.w3.org/2000/svg" width="32" height="32" viewBox="0 0 32 32">
    <g fill="#079CEE" fill-rule="evenodd">
        <path d="M28.16 27.036c0 .41-.334.744-.743.744H5.09a.746.746 0 0 1-.744-.744V12.153c0-.41.335-.745.744-.745h22.326c.409 0 .744.335.744.745v14.883zm0-23.07h-1.488V2.479A2.23 2.23 0 0 0 24.44.246a2.23 2.23 0 0 0-2.233 2.232v1.489H10.3V2.478A2.23 2.23 0 0 0 8.068.246a2.23 2.23 0 0 0-2.233 2.232v1.489H4.347a3.722 3.722 0 0 0-3.721 3.72V27.78a3.722 3.722 0 0 0 3.72 3.721h23.815a3.722 3.722 0 0 0 3.72-3.72V7.686a3.722 3.722 0 0 0-3.72-3.72z"/>
        <path d="M11.044 16.618c0 .826-.666 1.488-1.488 1.488a1.486 1.486 0 0 1-1.488-1.488 1.49 1.49 0 0 1 1.488-1.489c.822 0 1.488.67 1.488 1.489M11.044 22.571c0 .826-.666 1.489-1.488 1.489a1.486 1.486 0 0 1-1.488-1.489 1.49 1.49 0 0 1 1.488-1.488c.822 0 1.488.67 1.488 1.488M17.742 16.618c0 .826-.667 1.488-1.488 1.488a1.486 1.486 0 0 1-1.489-1.488 1.49 1.49 0 0 1 1.489-1.489c.821 0 1.488.67 1.488 1.489M17.742 22.571c0 .826-.667 1.489-1.488 1.489a1.486 1.486 0 0 1-1.489-1.489 1.49 1.49 0 0 1 1.489-1.488c.821 0 1.488.67 1.488 1.488M24.44 16.618c0 .826-.667 1.488-1.489 1.488a1.486 1.486 0 0 1-1.488-1.488 1.49 1.49 0 0 1 1.488-1.489c.822 0 1.489.67 1.489 1.489M24.44 22.571c0 .826-.667 1.489-1.489 1.489a1.486 1.486 0 0 1-1.488-1.489 1.49 1.49 0 0 1 1.488-1.488c.822 0 1.489.67 1.489 1.488"/>
    </g>
</svg>
