<svg xmlns="http://www.w3.org/2000/svg" width="33" height="32" viewBox="0 0 33 32">
    <g fill="#079CEE" fill-rule="evenodd">
        <path d="M22.617 17.695h-4.4c-1.618 0-2.934-1.302-2.934-2.91V8.967c0-.8.657-1.454 1.467-1.454s1.467.654 1.467 1.454v5.818h4.4c.81 0 1.466.655 1.466 1.455 0 .807-.657 1.455-1.466 1.455"/>
        <path d="M5.017 16.24c0-6.415 5.264-11.636 11.733-11.636 6.47 0 11.733 5.221 11.733 11.636 0 6.415-5.263 11.636-11.733 11.636-6.47 0-11.733-5.221-11.733-11.636zM31.1 10.735a6.133 6.133 0 0 0-.04-8.684c-2.416-2.4-6.323-2.407-8.756-.044A15.471 15.471 0 0 0 16.75.967c-1.96 0-3.83.378-5.555 1.04-2.433-2.363-6.34-2.356-8.756.044a6.134 6.134 0 0 0-.04 8.684A15.09 15.09 0 0 0 1.35 16.24c0 3.564 1.24 6.83 3.3 9.433l-1.296 1.28a1.812 1.812 0 0 0 0 2.574c.357.357.827.531 1.296.531.469 0 .939-.174 1.296-.53l1.297-1.288a15.4 15.4 0 0 0 9.507 3.273c3.591 0 6.888-1.23 9.507-3.273l1.297 1.287c.357.357.827.531 1.296.531.469 0 .939-.174 1.296-.53a1.81 1.81 0 0 0 0-2.575l-1.297-1.28c2.061-2.604 3.301-5.87 3.301-9.433a15.09 15.09 0 0 0-1.05-5.505z"/>
    </g>
</svg>
