<svg xmlns="http://www.w3.org/2000/svg" width="43" height="32" viewBox="0 0 43 32">
    <path fill="#079CEE" fill-rule="evenodd" d="M34.457 9.799H8.511c-.951 0-1.73-.778-1.73-1.73 0-.951.779-1.73 1.73-1.73h25.946c.951 0 1.73.779 1.73 1.73 0 .952-.779 1.73-1.73 1.73zm0 15.567h-4.324c-.952 0-1.73-.778-1.73-1.73 0-.95.778-1.729 1.73-1.729h4.324c.951 0 1.73.778 1.73 1.73 0 .951-.779 1.73-1.73 1.73zm3.46-25.08H5.052A4.326 4.326 0 0 0 .727 4.61v22.486a4.326 4.326 0 0 0 4.325 4.325h32.865a4.326 4.326 0 0 0 4.324-4.325V4.61A4.326 4.326 0 0 0 37.917.285z"/>
</svg>
